# xmcd
#
# Track frame offsets: 
#        150
#        11302
#        22030
#        35012
#        47497
#        58907
#        69520
#        82105
#        93715
#        106845
#        118805
#        131897
#        145040
#        156157
#        169125
#        183120
#        195545
#        207102
#
# Disc length: 2912 seconds
#
# Revision: 0
# Processed by: cddbd v1.4PL0 Copyright (c) Steve Scherf et al.
# Submitted via: ExactAudioCopy v0.90b4
#
DISCID=fb0b5e12
DTITLE=Jimmy Reed - The Very Best of Jimmy Reed
DYEAR=1900
DGENRE=Blues
TTITLE0=Baby, What You Want Me To Do
TTITLE1=Found Love
TTITLE2=Big Boss Man
TTITLE3=Bright Lights, Big City
TTITLE4=Aw Shucks, Hush Your Mouth
TTITLE5=Ain't Thay Lovin' You Baby
TTITLE6=Honest I Do
TTITLE7=Boogie In The Dark
TTITLE8=You Got Me Dizy
TTITLE9=Hush Hush
TTITLE10=Shame, Shame, Shame
TTITLE11=Oh John
TTITLE12=Take Out Some Insuramce
TTITLE13=Caress Me Baby
TTITLE14=You Don't Have To Go
TTITLE15=Pretty Thing
TTITLE16=I'm Nervous
TTITLE17=Good Lover
EXTD=
EXTT0=
EXTT1=
EXTT2=
EXTT3=
EXTT4=
EXTT5=
EXTT6=
EXTT7=
EXTT8=
EXTT9=
EXTT10=
EXTT11=
EXTT12=
EXTT13=
EXTT14=
EXTT15=
EXTT16=
EXTT17=
PLAYORDER=
